<?xml version="1.0" standalone="no"?>
<!DOCTYPE svg PUBLIC "-//W3C//DTD SVG 20010904//EN"
 "http://www.w3.org/TR/2001/REC-SVG-20010904/DTD/svg10.dtd">
<svg version="1.0" xmlns="http://www.w3.org/2000/svg"
 width="599.000000pt" height="599.000000pt" viewBox="0 0 599.000000 599.000000"
 preserveAspectRatio="xMidYMid meet">
<metadata>
Created by potrace 1.14, written by Peter Selinger 2001-2017
</metadata>
<g transform="translate(0.000000,599.000000) scale(0.100000,-0.100000)"
fill="#000000" stroke="none">
<path d="M3053 5656 l-513 -41 0 -147 c0 -82 -2 -148 -5 -148 -2 0 -80 -7
-172 -15 -93 -9 -289 -24 -436 -34 l-269 -18 -64 25 c-46 18 -64 30 -64 44 0
10 6 18 13 19 6 0 104 8 215 17 l204 17 -214 79 c-117 44 -222 79 -233 79 -11
-1 -244 -18 -517 -39 l-498 -39 0 -41 0 -41 -47 -6 c-27 -4 -99 -9 -161 -13
l-112 -7 0 -237 0 -237 -38 -7 c-20 -3 -61 -6 -89 -6 l-53 0 0 -558 0 -557
108 -42 c59 -22 133 -49 165 -59 l57 -18 0 -477 0 -477 -23 -5 c-12 -3 -86
-11 -164 -18 l-143 -12 0 -551 0 -551 90 -35 90 -35 0 -280 0 -281 128 -42
c70 -23 178 -61 240 -85 l113 -43 376 30 376 29 101 -31 c56 -17 192 -67 304
-109 l203 -79 142 13 c78 6 166 14 195 17 l52 6 0 -84 0 -83 -146 -13 -146
-13 146 -51 145 -51 261 19 260 20 0 145 0 146 498 43 c273 24 596 50 717 58
121 8 343 26 494 39 151 14 285 25 298 25 22 0 23 -3 23 -80 0 -44 -3 -80 -7
-81 -5 0 -70 -6 -146 -12 l-137 -12 145 -55 145 -55 260 19 260 20 0 147 c0
169 -6 159 101 159 l69 0 0 134 0 133 68 6 c37 4 113 10 170 13 l102 7 0 1106
0 1107 -147 -13 c-82 -6 -158 -12 -170 -12 l-23 -1 0 279 0 278 68 6 c37 4
113 10 170 13 l102 7 0 276 0 277 -147 -13 c-82 -6 -158 -12 -170 -12 l-23 -1
0 178 0 177 -532 203 c-293 111 -592 222 -663 246 -173 59 -458 165 -468 175
-4 4 164 20 373 36 l381 29 -48 19 c-26 11 -132 52 -236 91 l-187 72 -233 -23
c-127 -13 -250 -22 -272 -20 -22 2 -76 17 -120 33 l-80 30 -512 -40z m642
-236 c15 -7 10 -9 -21 -9 -23 -1 -56 -4 -73 -7 -30 -6 -31 -5 -31 30 l0 36 53
-21 c28 -12 61 -25 72 -29z"/>
</g>
</svg>
