<?xml version="1.0" encoding="UTF-8" standalone="no"?>
<!-- Created with Inkscape (http://www.inkscape.org/) -->

<svg
   version="1.1"
   id="svg1"
   width="1024"
   height="1024"
   viewBox="0 0 1024 1024"
   sodipodi:docname="Astrofox 2.0.svg"
   inkscape:export-filename="newafs.png"
   inkscape:export-xdpi="96"
   inkscape:export-ydpi="96"
   inkscape:version="1.4 (86a8ad7, 2024-10-11)"
   xmlns:inkscape="http://www.inkscape.org/namespaces/inkscape"
   xmlns:sodipodi="http://sodipodi.sourceforge.net/DTD/sodipodi-0.dtd"
   xmlns:xlink="http://www.w3.org/1999/xlink"
   xmlns="http://www.w3.org/2000/svg"
   xmlns:svg="http://www.w3.org/2000/svg">
  <defs
     id="defs1">
    <linearGradient
       id="linearGradient31"
       inkscape:collect="always">
      <stop
         style="stop-color:#ffffff;stop-opacity:1;"
         offset="0.43296704"
         id="stop31" />
      <stop
         style="stop-color:#ffffff;stop-opacity:0;"
         offset="1"
         id="stop32" />
    </linearGradient>
    <inkscape:path-effect
       effect="bspline"
       id="path-effect30"
       is_visible="true"
       lpeversion="1.3"
       weight="33.333333"
       steps="2"
       helper_size="0"
       apply_no_weight="true"
       apply_with_weight="true"
       only_selected="false"
       uniform="false" />
    <inkscape:path-effect
       effect="bspline"
       id="path-effect29"
       is_visible="true"
       lpeversion="1.3"
       weight="33.333333"
       steps="2"
       helper_size="0"
       apply_no_weight="true"
       apply_with_weight="true"
       only_selected="false"
       uniform="false" />
    <inkscape:path-effect
       effect="bspline"
       id="path-effect28"
       is_visible="true"
       lpeversion="1.3"
       weight="33.333333"
       steps="2"
       helper_size="0"
       apply_no_weight="true"
       apply_with_weight="true"
       only_selected="false"
       uniform="false" />
    <inkscape:path-effect
       effect="bspline"
       id="path-effect27"
       is_visible="true"
       lpeversion="1.3"
       weight="33.333333"
       steps="2"
       helper_size="0"
       apply_no_weight="true"
       apply_with_weight="true"
       only_selected="false"
       uniform="false" />
    <inkscape:path-effect
       effect="bspline"
       id="path-effect26"
       is_visible="true"
       lpeversion="1.3"
       weight="33.333333"
       steps="2"
       helper_size="0"
       apply_no_weight="true"
       apply_with_weight="true"
       only_selected="false"
       uniform="false" />
    <linearGradient
       id="linearGradient25"
       inkscape:collect="always">
      <stop
         style="stop-color:#ffffff;stop-opacity:1;"
         offset="0.67472529"
         id="stop25" />
      <stop
         style="stop-color:#ffffff;stop-opacity:0.64951766;"
         offset="1"
         id="stop26" />
    </linearGradient>
    <inkscape:path-effect
       effect="bspline"
       id="path-effect24"
       is_visible="true"
       lpeversion="1.3"
       weight="33.333333"
       steps="2"
       helper_size="0"
       apply_no_weight="true"
       apply_with_weight="true"
       only_selected="false"
       uniform="false" />
    <linearGradient
       id="linearGradient19"
       inkscape:collect="always">
      <stop
         style="stop-color:#778dff;stop-opacity:1;"
         offset="0"
         id="stop19" />
      <stop
         style="stop-color:#e0a2ee;stop-opacity:1;"
         offset="1"
         id="stop20" />
    </linearGradient>
    <linearGradient
       id="linearGradient16"
       inkscape:collect="always">
      <stop
         style="stop-color:#ffffff;stop-opacity:1;"
         offset="0"
         id="stop16" />
      <stop
         style="stop-color:#ffffff;stop-opacity:0.70096463;"
         offset="1"
         id="stop17" />
    </linearGradient>
    <inkscape:path-effect
       effect="bspline"
       id="path-effect14"
       is_visible="true"
       lpeversion="1.3"
       weight="33.333333"
       steps="2"
       helper_size="0"
       apply_no_weight="true"
       apply_with_weight="true"
       only_selected="false"
       uniform="false" />
    <inkscape:path-effect
       effect="bspline"
       id="path-effect13"
       is_visible="true"
       lpeversion="1.3"
       weight="33.333333"
       steps="2"
       helper_size="0"
       apply_no_weight="true"
       apply_with_weight="true"
       only_selected="false"
       uniform="false" />
    <linearGradient
       inkscape:collect="always"
       xlink:href="#linearGradient16"
       id="linearGradient17"
       x1="600.34473"
       y1="283.41849"
       x2="612.81549"
       y2="145.10869"
       gradientUnits="userSpaceOnUse" />
    <linearGradient
       inkscape:collect="always"
       xlink:href="#linearGradient19"
       id="linearGradient20"
       x1="511.99991"
       y1="0.4906227"
       x2="511.99991"
       y2="1023.5092"
       gradientUnits="userSpaceOnUse" />
    <linearGradient
       inkscape:collect="always"
       xlink:href="#linearGradient25"
       id="linearGradient26"
       x1="498.50516"
       y1="514.87189"
       x2="240.41867"
       y2="532.91907"
       gradientUnits="userSpaceOnUse" />
    <inkscape:path-effect
       effect="bspline"
       id="path-effect26-5"
       is_visible="true"
       lpeversion="1.3"
       weight="33.333333"
       steps="2"
       helper_size="0"
       apply_no_weight="true"
       apply_with_weight="true"
       only_selected="false"
       uniform="false" />
    <linearGradient
       inkscape:collect="always"
       xlink:href="#linearGradient31"
       id="linearGradient32"
       x1="520.98181"
       y1="781.56403"
       x2="688.13794"
       y2="680.68665"
       gradientUnits="userSpaceOnUse" />
  </defs>
  <sodipodi:namedview
     id="namedview1"
     pagecolor="#505050"
     bordercolor="#eeeeee"
     borderopacity="1"
     inkscape:showpageshadow="0"
     inkscape:pageopacity="0"
     inkscape:pagecheckerboard="0"
     inkscape:deskcolor="#505050"
     showguides="false"
     inkscape:zoom="0.55726091"
     inkscape:cx="530.27226"
     inkscape:cy="476.43751"
     inkscape:window-width="1920"
     inkscape:window-height="1009"
     inkscape:window-x="1912"
     inkscape:window-y="-8"
     inkscape:window-maximized="1"
     inkscape:current-layer="svg1" />
  <rect
     style="display:none;fill:url(#linearGradient20);stroke:none;stroke-width:0.980823;stroke-opacity:0.75969;paint-order:stroke fill markers"
     id="rect19"
     width="1023.0192"
     height="1023.0192"
     x="0.49041155"
     y="0.49041155" />
  <g
     id="g35"
     transform="matrix(1.2588821,0,0,1.2588821,-140.21685,-134.29986)">
    <path
       style="display:inline;fill:url(#linearGradient17);stroke:#ffffff;stroke-opacity:0.75969;paint-order:stroke fill markers"
       d="m 502.19594,321.40091 c 3.10298,-10.50525 4.14976,-14.76716 6.65461,-21.23489 2.50485,-6.46774 6.46761,-15.14094 11.02866,-24.00133 4.56106,-8.8604 9.72012,-17.90745 17.87021,-29.49701 8.15009,-11.58957 19.29067,-25.72091 29.34739,-36.37578 10.05672,-10.65486 19.029,-17.83269 25.34714,-22.28155 6.31814,-4.44885 9.98182,-6.16854 13.27175,-6.16852 3.28993,2e-5 6.20592,1.7197 9.83233,7.5519 3.62642,5.8322 7.96301,15.77647 11.70157,26.24445 3.73856,10.46798 6.87886,21.45902 9.04721,32.33823 2.16836,10.87921 3.36466,21.64595 4.2993,34.13276 0.93464,12.48681 1.60756,26.69292 1.53278,41.08639 -0.0748,14.39346 -0.89724,28.97341 -2.3179,40.56292 -1.42066,11.58951 -3.43938,20.18777 -28.71231,19.96346 -25.27292,-0.22432 -73.798,-9.27137 -95.48139,-22.16945 -21.68338,-12.89807 -16.52432,-29.64632 -13.42135,-40.15158 z"
       id="path14"
       inkscape:path-effect="#path-effect14"
       inkscape:original-d="m 504.25213,315.15758 c 1.04679,-4.26192 2.09357,-8.52383 3.14036,-12.78575 3.96291,-8.67355 7.92567,-17.34675 11.88851,-26.02013 5.15926,-9.04741 10.31832,-18.09446 15.47749,-27.14168 11.14102,-14.13191 22.2816,-28.26325 33.4224,-42.39487 8.97264,-7.17811 17.94492,-14.35593 26.91737,-21.5339 3.66383,-1.71975 7.32751,-3.43944 10.99126,-5.15916 2.91611,1.71976 5.8321,3.43944 8.74815,5.15916 4.33678,9.94468 8.67338,19.88895 13.01006,29.83343 3.14043,10.99148 6.28073,21.98252 9.42109,32.97378 1.19635,10.76716 2.39265,21.5339 3.58898,32.30085 0.67295,14.20667 1.34587,28.41278 2.0188,42.61917 -0.82249,14.58054 -1.64495,29.16049 -2.46742,43.74073 -2.01885,8.59878 -4.03757,17.19704 -6.05642,25.79582 -48.527,-9.04741 -97.05208,-18.09446 -145.57812,-27.14169 5.15927,-16.74892 10.31833,-33.49717 15.47749,-50.24576 z"
       sodipodi:nodetypes="cccccccccccccccc" />
    <path
       style="display:inline;fill:url(#linearGradient26);stroke:#ffffff;stroke-opacity:0.73385;paint-order:stroke fill markers"
       d="m 248.22602,646.06462 c -1.43151,-2.52228 -3.64908,-8.49667 -5.0751,-14.6033 -1.42602,-6.10663 -2.06046,-12.34525 -2.35125,-20.17021 -0.29079,-7.82496 -0.23792,-17.23576 0.0264,-24.29405 0.26436,-7.05828 0.74018,-11.76368 1.639,-18.26687 0.89882,-6.50318 2.22056,-14.80371 4.91701,-25.58947 2.69645,-10.78576 6.76741,-24.05604 12.16029,-37.93475 5.39288,-13.87871 12.10732,-28.36499 19.05989,-40.76328 6.95257,-12.39829 14.14285,-22.70787 20.11969,-30.6925 5.97684,-7.98463 10.73992,-13.64388 17.74758,-20.73836 7.00767,-7.09448 16.25927,-15.62356 34.99552,-18.37669 18.73625,-2.75313 46.95549,0.27009 73.62708,6.41759 26.67158,6.1475 51.79396,15.41885 64.43017,34.43106 12.63622,19.0122 12.78576,47.76392 -6.95405,68.69978 -19.7398,20.93587 -59.36736,34.05478 -94.73411,49.0636 -35.36675,15.00883 -66.47065,31.90662 -86.90178,45.02893 -20.43113,13.12232 -30.18849,22.46844 -36.74028,29.91439 -6.5518,7.44595 -9.89772,12.99132 -11.89344,16.22897 -1.99572,3.23766 -2.64114,4.16745 -4.07266,1.64516 z"
       id="path24"
       inkscape:path-effect="#path-effect24"
       inkscape:original-d="m 249.01209,649.51673 c -2.21758,-5.97439 -4.43515,-11.94878 -6.65273,-17.92317 -0.63447,-6.23887 -1.2689,-12.47749 -1.90335,-18.71624 0.0529,-9.41117 0.10574,-18.82197 0.15861,-28.23296 0.47585,-4.70558 0.95168,-9.41098 1.42751,-14.11648 1.3218,-8.30087 2.64354,-16.6014 3.96531,-24.9021 4.07112,-13.27082 8.14209,-26.5411 12.21313,-39.81165 6.71472,-14.48687 13.42916,-28.97315 20.14374,-43.45973 7.19056,-10.31 14.38084,-20.61958 21.57125,-30.92937 4.76327,-5.65947 9.52635,-11.31872 14.28952,-16.97808 9.25216,-8.5296 18.50376,-17.05868 27.75591,-25.58827 28.22035,3.02333 56.43959,6.04655 84.65938,9.06982 25.12338,9.27173 50.24576,18.54308 75.36864,27.81462 0.14955,28.75287 0.29909,57.50459 0.44863,86.25688 -39.62915,13.11944 -79.25671,26.23835 -118.88507,39.35753 -31.10514,16.89847 -62.20904,33.79626 -93.31356,50.69439 -9.75774,9.3465 -19.5151,18.69262 -29.27264,28.03893 -3.34605,5.54559 -6.69197,11.09096 -10.03795,16.63643 -0.64545,0.92984 -1.29088,1.85963 -1.93633,2.78945 z"
       sodipodi:nodetypes="ccccccccccccccccccc" />
    <path
       id="path13"
       style="display:inline;fill:#ffffff;fill-opacity:1;stroke:#ffffff;stroke-opacity:0.73385;paint-order:stroke fill markers"
       inkscape:label="path13"
       d="m 361.76758,176.00586 c -3.78031,-0.31724 -6.00043,0.90002 -8.85547,4.07226 -2.85504,3.17226 -6.34357,8.30047 -10.94336,17.5 -4.59979,9.19956 -10.31021,22.46879 -14.96289,35.66016 -4.65268,13.19138 -8.24851,26.30426 -11.84375,44.59766 -3.59525,18.29339 -7.19091,41.76613 -8.88281,62.30664 -1.6919,20.54051 -1.48029,38.14733 -0.79297,50.625 0.68732,12.47766 1.85112,19.82716 3.63672,28.24023 1.78559,8.41308 4.19441,17.88854 32.33398,23.00196 28.13957,5.11341 82.00627,5.86278 103.85742,14.01367 21.85115,8.15089 11.68245,23.70452 0.20508,32.22851 -11.47737,8.52399 -24.26258,10.0191 -36.03906,11.66407 -11.77648,1.64496 -22.54209,3.43885 -33.23438,6.42968 -10.69228,2.99084 -21.30957,7.17726 -30.95507,12 -9.6455,4.82274 -18.31951,10.28058 -26.35743,16.1875 -8.03791,5.90692 -15.43989,12.26225 -21.01171,17.54297 -5.57183,5.28073 -9.31362,9.48811 -13.19336,14.52539 -3.87975,5.03729 -7.89704,10.90498 -12.10157,18.01758 -4.20452,7.11261 -8.59625,15.46884 -12.28711,24.18945 -3.69085,8.72062 -6.68036,17.80544 -8.4375,24.44141 -1.75713,6.63597 -2.28153,10.82323 -2.375,12.80469 -0.0935,1.98146 0.24424,1.75605 1.42188,0.67187 1.17763,-1.08417 3.19588,-3.02757 6.82226,-5.90625 3.62639,-2.87868 8.85949,-6.6922 14.13086,-10.01953 5.27138,-3.32732 10.57973,-6.16733 16.97266,-8.89648 6.39293,-2.72915 13.87125,-5.34751 19.92773,-7.2168 6.05649,-1.86929 10.69066,-2.99057 15.55079,-3.73828 4.86012,-0.74772 9.94426,-1.12056 18.01953,-1.45703 8.07526,-0.33647 19.14146,-0.63667 30.39453,-0.11328 11.25306,0.52339 22.6935,1.87015 35.6289,4.11328 12.93541,2.24313 27.36534,5.38281 43.47852,9.08398 16.11318,3.70117 33.9077,7.96407 53.27344,12.5625 19.36573,4.59843 40.30096,9.53287 54.80664,12.74805 14.50568,3.21518 22.58234,4.71076 30.4707,6.05664 7.88837,1.34588 15.58822,2.54054 23.73828,3.66211 8.15006,1.12157 16.74901,2.16968 25.8711,2.73047 9.12208,0.56079 18.76744,0.63557 28.30078,0.26172 9.53333,-0.37386 18.95382,-1.19657 28.375,-2.87891 9.42117,-1.68234 18.84243,-4.22373 27.47851,-7.38281 8.63609,-3.15908 16.48584,-6.93626 24.74805,-12.52539 8.26221,-5.58913 16.93623,-12.99039 22.78711,-19.04688 5.85088,-6.05648 8.87944,-10.76695 12.24414,-17.0664 3.3647,-6.29946 7.06571,-14.18767 9.14063,-20.375 2.07491,-6.18734 2.52287,-10.67379 2.46679,-13.98243 -0.0561,-3.30864 -0.61724,-5.44014 -1.27148,-7.19726 -0.65425,-1.75713 -1.40135,-3.13936 -2.85938,-4.89649 -1.45803,-1.75712 -3.62573,-3.8888 -5.90625,-5.7207 -2.28052,-1.8319 -4.67299,-3.36371 -8.22461,-5.28906 -3.55162,-1.92536 -8.26292,-4.2435 -13.12304,-6.8418 -4.86013,-2.5983 -9.86968,-5.47727 -13.4961,-7.62695 -3.62642,-2.14968 -5.86915,-3.56999 -9.57031,-6.52344 -3.70116,-2.95345 -8.86029,-7.43955 -13.75781,-12.44922 -4.89752,-5.00967 -9.534,-10.54274 -12.86133,-15.0664 -3.32733,-4.52367 -5.34505,-8.03861 -7.8125,-12.99219 -2.46745,-4.95358 -5.38273,-11.34479 -8.03711,-17.8125 -2.65438,-6.46771 -5.04708,-13.01031 -7.79492,-20.20703 -2.74784,-7.19673 -5.85186,-15.0489 -9.90821,-23.36719 -4.05632,-8.3183 -9.06531,-17.10232 -13.30859,-23.86914 -4.24328,-6.76682 -7.71996,-11.51492 -12.58008,-16.89844 -4.86011,-5.38352 -11.10341,-11.40301 -17.19726,-16.73047 -6.09386,-5.32745 -12.03838,-9.96306 -18.92774,-14.60547 -6.88935,-4.6424 -14.72419,-9.29048 -22.87109,-13.59765 -8.1469,-4.30718 -16.60593,-8.27385 -26.58008,-11.73633 -9.97414,-3.46248 -21.46219,-6.4212 -32.95117,-9.38086 -10.16157,-1.87801 -20.32236,-3.75688 -29.4082,-4.65625 -9.08585,-0.89937 -17.09739,-0.81827 -21.52539,-0.47461 -4.42801,0.34366 -5.2728,0.95044 -5.70899,1.04297 -0.43619,0.0925 -0.46344,-0.3308 -1.1582,-1.98633 -0.69476,-1.65553 -2.05646,-4.54275 -6.21485,-11.74414 -4.15838,-7.20139 -11.11247,-18.71574 -18.88867,-30.75391 -7.7762,-12.03816 -16.37524,-24.5992 -24.83984,-35.57226 -8.4646,-10.97307 -16.79459,-20.35742 -25.5332,-28.48633 -8.73862,-8.12891 -17.88553,-15.00138 -25.12891,-19.36328 -7.24338,-4.3619 -12.58297,-6.21401 -16.36328,-6.53125 z m 15.67187,75.62891 c 0.28226,-0.0809 0.57233,0.11796 0.98243,0.5 1.09352,1.01877 3.03775,3.33804 6.31835,7.47851 3.2806,4.14048 7.89864,10.10166 12.20118,16.35938 4.30254,6.25771 8.29089,12.81147 11.52734,18.81054 3.23645,5.99907 5.72109,11.44321 7.83594,16.78321 2.11484,5.33999 3.85972,10.57408 5.23437,14.77734 1.37465,4.20326 2.37908,7.3771 3.06641,10.33789 0.68732,2.96079 1.057,5.70886 1.29492,8.77539 0.23792,3.06654 0.34398,6.45021 0.32617,8.20117 -0.0178,1.75096 -0.15942,1.87006 -1.47461,0.67383 -1.31518,-1.19623 -3.80438,-3.70654 -5.2207,-4.98828 -1.41632,-1.28174 -1.75937,-1.3359 -9.74219,5.13477 -7.98282,6.47067 -23.6057,19.4651 -31.84179,26.33593 -8.2361,6.87084 -9.08571,7.61778 -9.64649,8.06641 -0.56078,0.44862 -0.83109,0.59843 -2.05078,-3.47656 -1.21969,-4.07499 -3.38935,-12.37457 -4.88477,-21.6836 -1.49541,-9.30902 -2.3178,-19.62781 -2.13085,-31.40429 0.18693,-11.77649 1.38377,-25.00917 3.10351,-35.40235 1.71974,-10.39317 3.96196,-17.94584 6.4668,-25.01172 2.50484,-7.06588 5.27258,-13.64607 6.77734,-17.07617 0.94047,-2.14381 1.387,-3.05651 1.85742,-3.1914 z m 172.87891,206.15039 c 2.05851,-0.0444 4.02943,0.044 5.86133,0.24023 3.66379,0.39254 6.76724,1.21493 9.7207,2.39258 2.95347,1.17764 5.75774,2.70969 8.54297,4.72851 2.78523,2.01882 5.5518,4.52503 8.05664,7.08594 2.50484,2.56092 4.74819,5.17771 6.92578,8.14063 2.17759,2.96291 4.28949,6.27102 6.36328,10.13281 2.07379,3.86179 4.10843,8.27584 6.13672,12.85547 2.0283,4.57963 4.04974,9.32485 5.09766,11.78125 1.04792,2.45639 1.12227,2.62413 0.74609,2.72461 -0.37618,0.10047 -1.20418,0.13308 -2.19922,0.14843 -0.99503,0.0154 -2.1569,0.0131 -5.35547,-0.14648 -3.19856,-0.15961 -8.43263,-0.47688 -12.95312,-1.11133 -4.5205,-0.63445 -8.32763,-1.5863 -12.29297,-2.96093 -3.96534,-1.37465 -8.08979,-3.17159 -12.63672,-5.55079 -4.54692,-2.3792 -9.5167,-5.3394 -15.51758,-8.9082 -6.00087,-3.5688 -13.03253,-7.74623 -19.32422,-10.70703 -6.29168,-2.9608 -11.84147,-4.70576 -14.61718,-5.57813 -2.77571,-0.87236 -2.77689,-0.87204 -2.74219,-1.04882 0.0347,-0.17679 0.10532,-0.53101 0.27148,-1.09571 0.16617,-0.56469 0.42911,-1.34012 0.95313,-2.58789 0.52401,-1.24777 1.30843,-2.96721 2.78515,-4.76172 1.47673,-1.7945 3.64587,-3.66393 6.50586,-5.66406 2.86,-2.00013 6.41074,-4.12986 10.42969,-5.84961 4.01895,-1.71974 8.50395,-3.02822 12.85938,-3.70117 2.17771,-0.33647 4.32429,-0.5142 6.38281,-0.55859 z m 223.16797,101.25195 c 1.03963,0.002 2.05884,0.0212 3.0332,0.0586 3.89745,0.14955 7.07537,0.58094 9.23438,0.86133 2.15901,0.28039 3.29862,0.41047 4.38281,0.89649 1.08418,0.48601 2.11207,1.32623 2.73828,2.11132 0.62621,0.7851 0.85172,1.51429 1.0293,2.35547 0.17758,0.84118 0.30761,1.7945 0.24218,3.70117 -0.0654,1.90668 -0.32692,4.76797 -1.08398,8.08594 -0.75706,3.31798 -2.00861,7.09317 -3.41992,10.47656 -1.41131,3.3834 -2.98254,6.37341 -4.55274,9.29883 -1.57019,2.92543 -3.14035,5.78597 -4.16796,7.54688 -1.02762,1.76091 -1.51161,2.42218 -1.85743,2.77734 -0.34581,0.35516 -0.55295,0.40349 -0.65625,0.42774 -0.10329,0.0242 -0.1033,0.0258 -0.92578,-0.61915 -0.82247,-0.64489 -2.46823,-1.93524 -4.98242,-3.49609 -2.51419,-1.56085 -5.8963,-3.39383 -9.02734,-5.20703 -3.13105,-1.8132 -6.01024,-3.60644 -8.58985,-5.45703 -2.5796,-1.85059 -4.86104,-3.75795 -6.55273,-5.58985 -1.69169,-1.83189 -2.79401,-3.58801 -3.51367,-5.28906 -0.71967,-1.70104 -1.05484,-3.34652 -1.23243,-5.01953 -0.17758,-1.67301 -0.19668,-3.37471 0.1211,-5.06641 0.31778,-1.69169 0.97139,-3.37331 2.85937,-5.12109 1.88799,-1.74778 5.01,-3.56092 8.01953,-4.83203 3.00954,-1.27111 5.9068,-1.99976 9.66407,-2.42969 2.81795,-0.32245 6.1194,-0.47684 9.23828,-0.4707 z" />
    <path
       style="display:inline;fill:url(#linearGradient32);fill-opacity:1;stroke:none;stroke-opacity:0.73385;paint-order:stroke fill markers"
       d="m 558.51811,646.44757 c -4.64401,1.18975 -10.72499,0.94035 -16.47596,0.74088 -5.75098,-0.19947 -11.17173,-0.34901 -18.32045,0.28655 -7.14872,0.63556 -16.02495,2.05617 -22.8478,4.49601 -6.82286,2.43983 -11.59197,5.89873 -13.67749,13.00203 -2.08551,7.1033 -1.48736,17.85052 10.47615,34.58958 11.96351,16.73905 35.29143,39.46882 52.08081,55.42756 16.78938,15.95873 27.03912,25.14541 36.03431,35.0078 8.99518,9.86239 16.73472,20.39929 24.60939,29.37602 7.87467,8.97673 15.8837,16.39237 20.12622,21.10483 4.24251,4.71245 4.71834,6.7215 5.24706,7.75248 0.52871,1.03098 1.11028,1.08385 1.95622,-0.47587 0.84595,-1.55972 1.9562,-4.73189 2.80214,-9.83399 0.84594,-5.10209 1.42751,-12.13376 0.92522,-20.11733 -0.50228,-7.98356 -2.08838,-16.91853 -4.33541,-25.29862 -2.24704,-8.38009 -5.15487,-16.2048 -7.87774,-22.47002 -2.72286,-6.26523 -5.26061,-10.97063 -8.30071,-16.57499 -3.0401,-5.60436 -6.58236,-12.10733 -9.56958,-18.87485 -2.98722,-6.76752 -5.41923,-13.79919 -7.19041,-20.09086 -1.77118,-6.29167 -2.88144,-11.84298 -3.27797,-17.36802 -0.39653,-5.52505 -0.0793,-11.02338 0.89882,-16.98545 0.97812,-5.96207 2.61708,-12.38728 6.79393,-17.88588 4.17685,-5.49859 10.89116,-10.07018 14.24852,-12.35612 3.35736,-2.28593 3.35736,-2.28593 0.52872,-4.58585 -2.82864,-2.29992 -8.48569,-6.89958 -17.92324,-8.16846 -9.43756,-1.26887 -22.65497,0.79304 -30.86736,3.1385 -8.2124,2.34546 -11.41938,4.97431 -16.06339,6.16407 z"
       id="path28"
       inkscape:path-effect="#path-effect29"
       inkscape:original-d="m 559.95508,647.88672 c -6.08098,-0.2494 -12.16196,-0.4988 -18.24294,-0.7482 -5.42097,-0.14954 -10.84172,-0.29908 -16.26258,-0.44862 -8.87658,1.42066 -17.75281,2.84127 -26.62921,4.26191 -4.76931,3.45903 -9.53842,6.91793 -14.30763,10.37689 0.59818,10.74764 1.19633,21.49486 1.79449,32.24229 23.32886,22.73068 46.65678,45.46045 69.98517,68.19068 10.25037,9.18724 20.50011,18.37392 30.75048,27.56116 7.74,10.53754 15.47954,21.07444 23.21954,31.61197 8.00934,7.41593 16.01837,14.83157 24.02756,22.24736 0.47585,2.00912 0.95168,4.01817 1.42751,6.02726 0.58159,0.0529 1.16316,0.10574 1.74474,0.15861 1.1103,-3.17231 2.22057,-6.34448 3.33085,-9.51673 0.58159,-7.03194 1.16316,-14.06361 1.74474,-21.09541 -1.58616,-8.93533 -3.17225,-17.8703 -4.75837,-26.80546 -2.90795,-7.82502 -5.81578,-15.64973 -8.72367,-23.47459 -2.53784,-4.70559 -5.07559,-9.41099 -7.61338,-14.11648 -3.54241,-6.50323 -7.08468,-13.0062 -10.62701,-19.5093 -2.4321,-7.03194 -4.86411,-14.06361 -7.29616,-21.09541 -1.11031,-5.55154 -2.22057,-11.10285 -3.33086,-16.65428 0.31723,-5.49866 0.63444,-10.99699 0.95168,-16.49566 1.63902,-6.42547 3.27798,-12.85068 4.91697,-19.27601 6.71471,-4.57186 13.42902,-9.14345 20.14374,-13.71532 v 0 c -5.65728,-4.59984 -11.31433,-9.1995 -16.97149,-13.79925 -13.21795,2.062 -26.43536,4.12391 -39.65304,6.18587 -3.20711,2.62896 -6.41409,5.25781 -9.62113,7.88672 z"
       sodipodi:nodetypes="ccccccccccccccccccccccccccc" />
    <path
       style="fill:#ffffff;fill-opacity:1;stroke:#ffffff;stroke-opacity:0.73385;paint-order:stroke fill markers"
       d="m 322.33485,612.36369 c -2.01866,1.41448 -6.05599,4.24342 -10.46735,9.48996 -4.41137,5.24653 -9.19659,12.91035 -9.12177,26.01407 0.0748,13.10371 5.00957,31.64642 19.29097,51.98421 14.2814,20.33779 37.9084,42.46941 65.12516,61.46127 27.21677,18.99186 58.02159,34.84289 93.83706,48.60077 35.81547,13.75789 76.63933,25.42185 102.7586,31.96586 26.11928,6.544 37.53269,7.96776 43.90041,8.5673 6.36771,0.59954 7.68945,0.37485 8.35695,0.0746 0.6675,-0.30026 0.68074,-0.67606 -1.21466,-5.30981 -1.89539,-4.63375 -5.69925,-13.52508 -12.54719,-24.23023 -6.84794,-10.70516 -16.73949,-23.22344 -26.40513,-32.75176 -9.66564,-9.52832 -19.1048,-16.06616 -28.28261,-22.55206 -9.17782,-6.4859 -18.09384,-12.91954 -24.45652,-18.15222 -6.36267,-5.23268 -10.12475,-9.2144 -14.5031,-13.71039 -4.37836,-4.49599 -9.37273,-9.50597 -14.95153,-15.76457 -5.57881,-6.2586 -11.74171,-13.76541 -16.24491,-20.50371 -4.50319,-6.7383 -7.34645,-12.70769 -8.77194,-18.00862 -1.4255,-5.30092 -1.43316,-9.93308 -0.0827,-13.99429 1.35047,-4.06122 4.05896,-7.55127 9.07606,-10.3448 5.0171,-2.79354 12.34245,-4.8904 19.21864,-6.13472 6.87619,-1.24432 13.30282,-1.63605 19.48479,-1.89793 6.18197,-0.26189 12.11892,-0.39392 19.15182,-0.56217 7.0329,-0.16825 15.1613,-0.37272 18.27389,-5.86787 3.11259,-5.49516 1.20928,-16.28057 -27.81092,-27.04934 -29.02021,-10.76877 -85.15503,-21.52026 -124.5175,-24.29592 -39.36248,-2.77567 -61.95058,2.42451 -75.33467,7.34688 -13.3841,4.92237 -17.56357,9.56665 -19.65335,11.88883 -2.08978,2.32219 -2.08983,2.32219 -4.1085,3.73666 z"
       id="path29"
       inkscape:path-effect="#path-effect30"
       inkscape:original-d="m 324.35352,610.94922 c -4.03733,2.82895 -8.07466,5.65789 -12.11199,8.48684 -4.7854,7.66412 -9.57062,15.32794 -14.35593,22.99192 4.93495,18.54345 9.8697,37.08616 14.80455,55.62924 23.62795,22.1325 47.25495,44.26412 70.88242,66.39618 30.80606,15.85166 61.61088,31.70269 92.41632,47.55403 40.8255,11.66443 81.64936,23.32839 122.47405,34.99259 11.41386,1.42381 22.82727,2.84757 34.2409,4.27136 1.3218,-0.22471 2.64354,-0.4494 3.96531,-0.6741 0.0132,-0.37581 0.0264,-0.75161 0.0397,-1.12741 -3.80402,-8.8917 -7.60788,-17.78303 -11.41182,-26.67455 -9.89194,-12.51879 -19.78349,-25.03707 -29.67524,-37.55561 -9.43953,-6.5381 -18.87869,-13.07594 -28.31803,-19.61391 -8.91629,-6.43383 -17.83231,-12.86747 -26.74833,-19.3011 -3.20462,-4.60309 -7.26905,-8.29913 -11.33356,-11.99525 -4.99456,-5.01018 -9.98893,-10.02016 -14.98339,-15.03024 -6.16315,-7.50712 -12.32605,-15.01393 -18.48907,-22.5209 -2.84338,-5.96963 -5.68664,-11.93902 -8.52995,-17.90854 -0.008,-4.63233 -0.0153,-9.26449 -0.023,-13.89673 2.7086,-3.49019 5.41709,-6.98024 8.12564,-10.47036 7.32565,-2.09695 14.651,-4.19381 21.9765,-6.29071 6.42688,-0.39174 12.85351,-0.78347 19.28027,-1.1752 5.93718,-0.13204 11.87413,-0.26407 17.8112,-0.3961 8.12873,-0.20447 16.25713,-0.40894 24.38569,-0.61341 -1.90338,-10.78584 -3.80669,-21.57125 -5.71003,-32.35687 -56.13707,-10.75193 -112.27189,-21.50342 -168.40783,-32.25512 -22.58901,5.20038 -45.17711,10.40056 -67.76566,15.60084 -4.17964,4.64446 -8.35911,9.28874 -12.53867,13.93311 z" />
  </g>
</svg>
